<?xml version="1.0" encoding="UTF-8" standalone="no"?>
<!-- Created with Inkscape (http://www.inkscape.org/) -->

<svg
   xmlns:dc="http://purl.org/dc/elements/1.1/"
   xmlns:cc="http://creativecommons.org/ns#"
   xmlns:rdf="http://www.w3.org/1999/02/22-rdf-syntax-ns#"
   xmlns:svg="http://www.w3.org/2000/svg"
   xmlns="http://www.w3.org/2000/svg"
   xmlns:sodipodi="http://sodipodi.sourceforge.net/DTD/sodipodi-0.dtd"
   xmlns:inkscape="http://www.inkscape.org/namespaces/inkscape"
   width="78.620903mm"
   height="50.822578mm"
   viewBox="0 0 278.578 180.08"
   id="svg2"
   version="1.1"
   inkscape:version="0.91 r13725"
   sodipodi:docname="fonts.svg">
  <defs
     id="defs4" />
  <sodipodi:namedview
     id="base"
     pagecolor="#ffffff"
     bordercolor="#666666"
     borderopacity="1.0"
     inkscape:pageopacity="0.0"
     inkscape:pageshadow="2"
     inkscape:zoom="1.4"
     inkscape:cx="254.72796"
     inkscape:cy="142.39781"
     inkscape:document-units="px"
     inkscape:current-layer="flowRoot3336"
     showgrid="false"
     fit-margin-top="0"
     fit-margin-left="0"
     fit-margin-right="0"
     fit-margin-bottom="0"
     inkscape:window-width="1920"
     inkscape:window-height="1017"
     inkscape:window-x="-8"
     inkscape:window-y="-8"
     inkscape:window-maximized="1" />
  <metadata
     id="metadata7">
    <rdf:RDF>
      <cc:Work
         rdf:about="">
        <dc:format>image/svg+xml</dc:format>
        <dc:type
           rdf:resource="http://purl.org/dc/dcmitype/StillImage" />
        <dc:title></dc:title>
      </cc:Work>
    </rdf:RDF>
  </metadata>
  <g
     inkscape:label="Ebene 1"
     inkscape:groupmode="layer"
     id="layer1"
     transform="translate(0.1,-872.28221)">
    <g
       transform="matrix(1.0000018,0,0,1,0.23742248,284.53739)"
       style="font-style:normal;font-weight:normal;font-size:40px;line-height:125%;font-family:sans-serif;letter-spacing:0px;word-spacing:0px;fill:#000000;fill-opacity:1;stroke:none;stroke-width:1px;stroke-linecap:butt;stroke-linejoin:miter;stroke-opacity:1"
       id="flowRoot3336">
      <path
         d="m 9.9825781,598.86482 q -3.36,0.08 -5.04,1.56 -1.68,1.48 -1.68,5.6 l 0,10.88 -3.35999997,0 0,-20.96 3.07999997,0 0,3.8 q 1.44,-2.36 2.76,-3.36 1.36,-1.04 2.96,-1.04 0.44,0 1.28,0.12 l 0,3.4 z"
         style="font-style:normal;font-variant:normal;font-weight:normal;font-stretch:normal;font-family:FreeSans;-inkscape-font-specification:FreeSans"
         id="path3351"
         inkscape:connector-curvature="0" />
      <path
         d="m 12.320703,602.14482 q 0.24,-6.8 8.4,-6.8 3.88,0 5.88,1.48 2,1.44 2,4.24 l 0,12.32 q 0,1.64 1.8,1.64 0.36,0 0.72,-0.08 l 0,2.52 q -1.4,0.36 -2.28,0.36 -1.6,0 -2.44,-0.76 -0.8,-0.72 -1,-2.32 -3.36,3.08 -7.12,3.08 -3.16,0 -5.04,-1.68 -1.84,-1.68 -1.84,-4.52 0,-0.92 0.16,-1.68 0.2,-0.76 0.4,-1.32 0.24,-0.6 0.8,-1.08 0.56,-0.52 0.92,-0.84 0.4,-0.32 1.28,-0.6 0.92,-0.32 1.4,-0.44 0.48,-0.16 1.68,-0.36 1.2,-0.2 1.76,-0.28 0.56,-0.08 2,-0.28 1.96,-0.24 2.72,-0.76 0.76,-0.52 0.76,-1.56 l 0,-0.88 q 0,-1.52 -1.24,-2.32 -1.2,-0.8 -3.44,-0.8 -2.32,0 -3.52,0.92 -1.2,0.88 -1.4,2.8 l -3.36,0 z m 6.68,12.76 q 2.76,0 4.52,-1.44 1.76,-1.48 1.76,-3.16 l 0,-3.76 q -1,0.48 -3.04,0.8 -2,0.32 -3.48,0.56 -1.48,0.24 -2.68,1.16 -1.2,0.88 -1.2,2.48 0,1.6 1.08,2.48 1.08,0.88 3.04,0.88 z"
         style="font-style:normal;font-variant:normal;font-weight:normal;font-stretch:normal;font-family:FreeSans;-inkscape-font-specification:FreeSans"
         id="path3353"
         inkscape:connector-curvature="0" />
      <path
         d="m 37.986328,595.94482 0,20.96 -3.32,0 0,-20.96 3.32,0 z m 0,-8.2 0,4.2 -3.36,0 0,-4.2 3.36,0 z"
         style="font-style:normal;font-variant:normal;font-weight:normal;font-stretch:normal;font-family:FreeSans;-inkscape-font-specification:FreeSans"
         id="path3355"
         inkscape:connector-curvature="0" />
      <path
         d="m 43.692578,595.94482 3.08,0 0,3.52 q 1.4,-2.2 3,-3.16 1.64,-0.96 3.96,-0.96 3.04,0 4.84,1.56 1.8,1.56 1.8,4.16 l 0,15.84 -3.32,0 0,-14.52 q 0,-1.88 -1.16,-3 -1.16,-1.12 -3.16,-1.12 -2.56,0 -4.12,1.96 -1.56,1.92 -1.56,5.12 l 0,11.56 -3.36,0 0,-20.96 z"
         style="font-style:normal;font-variant:normal;font-weight:normal;font-stretch:normal;font-family:FreeSans;-inkscape-font-specification:FreeSans"
         id="path3357"
         inkscape:connector-curvature="0" />
      <path
         d="m 65.318203,587.74482 3.32,0 0,11.04 q 2.28,-3.44 6.48,-3.44 4.16,0 6.56,2.96 2.4,2.96 2.4,8.04 0,5.2 -2.48,8.36 -2.48,3.12 -6.64,3.12 -4.28,0 -6.64,-3.6 l 0,2.68 -3,0 0,-29.16 z m 9.16,10.72 q -2.64,0 -4.24,2.24 -1.6,2.2 -1.6,5.88 0,3.68 1.6,5.92 1.6,2.2 4.24,2.2 2.72,0 4.4,-2.2 1.72,-2.24 1.72,-5.8 0,-3.76 -1.68,-6 -1.64,-2.24 -4.44,-2.24 z"
         style="font-style:normal;font-variant:normal;font-weight:normal;font-stretch:normal;font-family:FreeSans;-inkscape-font-specification:FreeSans"
         id="path3359"
         inkscape:connector-curvature="0" />
      <path
         d="m 96.303828,595.34482 q 4.520002,0 7.000002,3 2.52,2.96 2.52,8.4 0,5.16 -2.56,8.12 -2.52,2.96 -6.920002,2.96 -4.48,0 -7,-2.96 -2.48,-3 -2.48,-8.28 0,-5.28 2.52,-8.24 2.52,-3 6.92,-3 z m 0.04,3.08 q -2.8,0 -4.4,2.2 -1.6,2.16 -1.6,5.96 0,3.8 1.6,6 1.6,2.16 4.4,2.16 2.76,0 4.360002,-2.16 1.64,-2.2 1.64,-5.88 0,-3.88 -1.6,-6.08 -1.560002,-2.2 -4.400002,-2.2 z"
         style="font-style:normal;font-variant:normal;font-weight:normal;font-stretch:normal;font-family:FreeSans;-inkscape-font-specification:FreeSans"
         id="path3361"
         inkscape:connector-curvature="0" />
      <path
         d="m 129.0682,616.90482 -3.8,0 -4.24,-16.44 -4.04,16.44 -3.76,0 -6.08,-20.96 3.68,0 4.28,16.32 4,-16.32 4.08,0 4.12,16.32 4.16,-16.32 3.76,0 -6.16,20.96 z"
         style="font-style:normal;font-variant:normal;font-weight:normal;font-stretch:normal;font-family:FreeSans;-inkscape-font-specification:FreeSans"
         id="path3363"
         inkscape:connector-curvature="0" />
      <path
         d="m 149.7082,595.94482 3.08,0 0,2.96 q 1.36,-1.88 2.84,-2.72 1.52,-0.84 3.6,-0.84 3.88,0 5.64,3.2 1.48,-1.76 2.92,-2.48 1.44,-0.72 3.52,-0.72 2.92,0 4.48,1.52 1.6,1.48 1.6,4.32 l 0,15.72 -3.36,0 0,-14.44 q 0,-2 -1.04,-3.08 -1,-1.12 -2.84,-1.12 -2.04,0 -3.48,1.6 -1.44,1.6 -1.44,3.88 l 0,13.16 -3.36,0 0,-14.44 q 0,-2 -1.04,-3.08 -1,-1.12 -2.84,-1.12 -2.04,0 -3.48,1.6 -1.44,1.6 -1.44,3.88 l 0,13.16 -3.36,0 0,-20.96 z"
         style="font-style:normal;font-variant:normal;font-weight:normal;font-stretch:normal;font-family:FreeSans;-inkscape-font-specification:FreeSans"
         id="path3365"
         inkscape:connector-curvature="0" />
      <path
         d="m 182.86758,602.14482 q 0.24,-6.8 8.4,-6.8 3.88,0 5.88,1.48 2,1.44 2,4.24 l 0,12.32 q 0,1.64 1.8,1.64 0.36,0 0.72,-0.08 l 0,2.52 q -1.4,0.36 -2.28,0.36 -1.6,0 -2.44,-0.76 -0.8,-0.72 -1,-2.32 -3.36,3.08 -7.12,3.08 -3.16,0 -5.04,-1.68 -1.84,-1.68 -1.84,-4.52 0,-0.92 0.16,-1.68 0.2,-0.76 0.4,-1.32 0.24,-0.6 0.8,-1.08 0.56,-0.52 0.92,-0.84 0.4,-0.32 1.28,-0.6 0.92,-0.32 1.4,-0.44 0.48,-0.16 1.68,-0.36 1.2,-0.2 1.76,-0.28 0.56,-0.08 2,-0.28 1.96,-0.24 2.72,-0.76 0.76,-0.52 0.76,-1.56 l 0,-0.88 q 0,-1.52 -1.24,-2.32 -1.2,-0.8 -3.44,-0.8 -2.32,0 -3.52,0.92 -1.2,0.88 -1.4,2.8 l -3.36,0 z m 6.68,12.76 q 2.76,0 4.52,-1.44 1.76,-1.48 1.76,-3.16 l 0,-3.76 q -1,0.48 -3.04,0.8 -2,0.32 -3.48,0.56 -1.48,0.24 -2.68,1.16 -1.2,0.88 -1.2,2.48 0,1.6 1.08,2.48 1.08,0.88 3.04,0.88 z"
         style="font-style:normal;font-variant:normal;font-weight:normal;font-stretch:normal;font-family:FreeSans;-inkscape-font-specification:FreeSans"
         id="path3367"
         inkscape:connector-curvature="0" />
      <path
         d="m 212.30258,595.94482 0,2.72 -3.44,0 0,14.36 q 0,1.12 0.36,1.52 0.4,0.36 1.48,0.36 1,0 1.6,-0.16 l 0,2.8 q -1.56,0.28 -2.72,0.28 -1.96,0 -3,-0.88 -1.04,-0.84 -1.04,-2.44 l 0,-15.84 -2.84,0 0,-2.72 2.84,0 0,-5.76 3.32,0 0,5.76 3.44,0 z"
         style="font-style:normal;font-variant:normal;font-weight:normal;font-stretch:normal;font-family:FreeSans;-inkscape-font-specification:FreeSans"
         id="path3369"
         inkscape:connector-curvature="0" />
      <path
         d="m 231.6857,602.98482 -3.36,0 q -0.32,-2.2 -1.6,-3.36 -1.28,-1.2 -3.36,-1.2 -2.72,0 -4.28,2.24 -1.52,2.2 -1.52,6.12 0,3.72 1.56,5.84 1.56,2.12 4.32,2.12 4.28,0 5.12,-5.04 l 3.36,0 q -0.32,3.84 -2.56,6 -2.24,2.12 -6,2.12 -4.28,0 -6.8,-2.96 -2.48,-3 -2.48,-8.08 0,-5.2 2.52,-8.32 2.56,-3.12 6.8,-3.12 3.64,0 5.8,1.96 2.2,1.96 2.48,5.68 z"
         style="font-style:normal;font-variant:normal;font-weight:normal;font-stretch:normal;font-family:FreeSans;-inkscape-font-specification:FreeSans"
         id="path3371"
         inkscape:connector-curvature="0" />
      <path
         d="m 248.9657,602.38482 q 0,-2.2 -1.36,-3.16 -1.32,-0.96 -2.96,-0.96 -2.56,0 -4.12,1.96 -1.56,1.92 -1.56,5.12 l 0,11.56 -3.32,0 0,-29.16 3.32,0 0,11.08 q 1.48,-1.92 2.96,-2.68 1.52,-0.8 3.76,-0.8 3.04,0 4.8,1.56 1.8,1.52 1.8,4.16 l 0,15.84 -3.32,0 0,-14.52 z"
         style="font-style:normal;font-variant:normal;font-weight:normal;font-stretch:normal;font-family:FreeSans;-inkscape-font-specification:FreeSans"
         id="path3373"
         inkscape:connector-curvature="0" />
      <path
         d="m 4.3425781,645.94482 3.04,0 -0.68,3.28 q 1.84,-2.12 3.3199999,-3 1.52,-0.88 3.28,-0.88 0.48,0 1.28,0.12 l -0.72,3.4 q -3.16,0 -5.3199999,1.6 -2.12,1.56 -2.96,5.56 l -2.32,10.88 -3.35999997,0 4.43999997,-20.96 z"
         style="font-style:italic;font-variant:normal;font-weight:normal;font-stretch:normal;font-family:FreeSans;-inkscape-font-specification:FreeSans"
         id="path3375"
         inkscape:connector-curvature="0" />
      <path
         d="m 24.600703,648.42482 q -4.32,0 -5.48,3.72 l -3.36,0 q 0.56,-3.32 3.04,-5.04 2.52,-1.76 6.68,-1.76 3.16,0 5.04,1.24 1.92,1.24 1.92,3.28 0,0.4 -0.24,1.48 l -2.56,12.04 q -0.04,0.12 -0.04,0.4 0,1.16 1.52,1.16 0.32,0 0.68,-0.08 l -0.52,2.6 q -0.32,0.04 -0.72,0.12 -0.4,0.12 -0.72,0.16 -0.28,0.08 -0.68,0.08 -1.32,0 -2.08,-0.68 -0.72,-0.68 -0.84,-1.24 -0.12,-0.56 -0.12,-1.16 -0.04,0.04 -0.36,0.32 -0.28,0.24 -0.44,0.36 -0.12,0.08 -0.48,0.36 -0.36,0.28 -0.6,0.44 -0.24,0.12 -0.72,0.4 -0.44,0.24 -0.84,0.36 -0.36,0.16 -0.92,0.32 -0.56,0.2 -1.12,0.28 -0.52,0.12 -1.2,0.16 -0.64,0.08 -1.36,0.08 -2.68,0 -4.24,-1.36 -1.52,-1.36 -1.52,-3.76 0,-2.76 2.16,-4.92 2.2,-2.2 7.36,-2.68 0.48,-0.04 1.6,-0.12 1.12,-0.08 1.56,-0.12 0.48,-0.08 1.24,-0.24 0.8,-0.16 1.16,-0.4 0.4,-0.24 0.76,-0.68 0.36,-0.44 0.48,-1.08 l 0.12,-0.72 q 0.08,-0.64 0.08,-0.88 0,-1.08 -1.2,-1.76 -1.2,-0.68 -3.04,-0.68 z m 3.16,8.16 q -1.16,0.4 -3.56,0.8 -2.4,0.36 -4.04,0.68 -1.64,0.28 -3,1.36 -1.32,1.08 -1.32,2.88 0,1.28 0.92,1.96 0.92,0.68 2.64,0.68 2.64,0 4.88,-1.36 2.28,-1.4 2.68,-3.24 l 0.8,-3.76 z"
         style="font-style:italic;font-variant:normal;font-weight:normal;font-stretch:normal;font-family:FreeSans;-inkscape-font-specification:FreeSans"
         id="path3377"
         inkscape:connector-curvature="0" />
      <path
         d="m 42.426328,645.94482 -4.44,20.96 -3.36,0 4.44,-20.96 3.36,0 z m 1.76,-8.2 -0.88,4.12 -3.36,0 0.88,-4.12 3.36,0 z"
         style="font-style:italic;font-variant:normal;font-weight:normal;font-stretch:normal;font-family:FreeSans;-inkscape-font-specification:FreeSans"
         id="path3379"
         inkscape:connector-curvature="0" />
      <path
         d="m 48.132578,645.94482 3.04,0 -0.52,2.6 q 3.12,-3.2 7.76,-3.2 2.48,0 3.96,1.36 1.48,1.36 1.48,3.64 0,0.84 -0.16,1.52 l -3.2,15.04 -3.36,0 2.96,-13.96 q 0.24,-0.96 0.24,-1.48 0,-1.4 -1,-2.32 -1,-0.92 -2.48,-0.92 -2.72,0 -4.72,1.92 -1.96,1.92 -2.64,5.2 l -2.44,11.56 -3.36,0 4.44,-20.96 z"
         style="font-style:italic;font-variant:normal;font-weight:normal;font-stretch:normal;font-family:FreeSans;-inkscape-font-specification:FreeSans"
         id="path3381"
         inkscape:connector-curvature="0" />
      <path
         d="m 74.918203,667.82482 q -4.24,0 -5.92,-4.04 l -0.68,3.12 -3,0 6.2,-29.16 3.36,0 -2.32,11 q 1.52,-1.64 2.6,-2.28 1.92,-1.12 4.44,-1.12 3.04,0 5.04,2.24 2.04,2.24 2.04,5.6 0,3.4 -1.32,6.68 -1.32,3.28 -4.12,5.64 -2.76,2.32 -6.32,2.32 z m 0.08,-3.08 q 1.92,0 3.44,-0.92 1.52,-0.92 2.36,-2.2 0.88,-1.32 1.44,-2.92 0.56,-1.6 0.72,-2.76 0.2,-1.16 0.2,-2 0,-2.6 -1.24,-4.04 -1.24,-1.48 -3.44,-1.48 -3.48,0 -5.72,3.44 -2.2,3.44 -2.2,7.72 0,2.36 1.2,3.76 1.2,1.4 3.24,1.4 z"
         style="font-style:italic;font-variant:normal;font-weight:normal;font-stretch:normal;font-family:FreeSans;-inkscape-font-specification:FreeSans"
         id="path3383"
         inkscape:connector-curvature="0" />
      <path
         d="m 100.78383,645.34482 q 3.48,0 5.56,2.08 2.12,2.08 2.12,5.4 0,1.56 -0.32,3.36 -0.32,1.76 -1.2,3.92 -0.88,2.12 -2.2,3.8 -1.28,1.64 -3.52,2.8 -2.240002,1.12 -5.040002,1.12 -3.36,0 -5.48,-2.08 -2.08,-2.08 -2.08,-5.4 0,-1.52 0.32,-3.28 0.32,-1.8 1.16,-3.92 0.88,-2.16 2.16,-3.84 1.32,-1.68 3.52,-2.8 2.24,-1.16 5.000002,-1.16 z m -4.040002,19.4 q 1.96,0 3.480002,-0.92 1.56,-0.96 2.4,-2.28 0.88,-1.36 1.4,-3 0.56,-1.68 0.72,-2.88 0.2,-1.2 0.2,-2.08 0,-2.44 -1.24,-3.8 -1.24,-1.36 -3.44,-1.36 -1.920002,0 -3.480002,0.96 -1.52,0.96 -2.36,2.32 -0.84,1.32 -1.4,3 -0.52,1.64 -0.72,2.84 -0.16,1.16 -0.16,2 0,2.4 1.24,3.8 1.24,1.4 3.36,1.4 z"
         style="font-style:italic;font-variant:normal;font-weight:normal;font-stretch:normal;font-family:FreeSans;-inkscape-font-specification:FreeSans"
         id="path3385"
         inkscape:connector-curvature="0" />
      <path
         d="m 129.53883,666.90482 -3.8,0 -0.48,-16.72 -7.8,16.72 -3.84,0 -1.6,-20.96 3.64,0 0.76,16.32 7.56,-16.32 4.2,0 0.44,16.32 7.84,-16.32 3.64,0 -10.56,20.96 z"
         style="font-style:italic;font-variant:normal;font-weight:normal;font-stretch:normal;font-family:FreeSans;-inkscape-font-specification:FreeSans"
         id="path3387"
         inkscape:connector-curvature="0" />
      <path
         d="m 176.29883,645.34482 q 2.72,0 3.88,1.44 1.2,1.44 1.2,3 0,0.88 -0.24,2.2 l -3.16,14.92 -3.36,0 2.88,-13.64 q 0.36,-1.72 0.36,-1.96 0,-1.44 -0.84,-2.24 -0.8,-0.84 -2.2,-0.84 -2.16,0 -3.96,1.6 -1.8,1.56 -2.32,3.92 l -2.8,13.16 -3.36,0 3.08,-14.44 q 0.16,-0.68 0.16,-1.48 0,-1.24 -0.92,-2 -0.88,-0.76 -2.36,-0.76 -2,0 -3.8,1.64 -1.76,1.6 -2.24,3.88 l -2.8,13.16 -3.36,0 4.44,-20.96 3.04,0 -0.52,2.6 q 1.92,-1.8 3.48,-2.48 1.6,-0.72 3.64,-0.72 3.88,0 4.84,3.32 3.44,-3.32 7.24,-3.32 z"
         style="font-style:italic;font-variant:normal;font-weight:normal;font-stretch:normal;font-family:FreeSans;-inkscape-font-specification:FreeSans"
         id="path3389"
         inkscape:connector-curvature="0" />
      <path
         d="m 195.5382,648.42482 q -4.32,0 -5.48,3.72 l -3.36,0 q 0.56,-3.32 3.04,-5.04 2.52,-1.76 6.68,-1.76 3.16,0 5.04,1.24 1.92,1.24 1.92,3.28 0,0.4 -0.24,1.48 l -2.56,12.04 q -0.04,0.12 -0.04,0.4 0,1.16 1.52,1.16 0.32,0 0.68,-0.08 l -0.52,2.6 q -0.32,0.04 -0.72,0.12 -0.4,0.12 -0.72,0.16 -0.28,0.08 -0.68,0.08 -1.32,0 -2.08,-0.68 -0.72,-0.68 -0.84,-1.24 -0.12,-0.56 -0.12,-1.16 -0.04,0.04 -0.36,0.32 -0.28,0.24 -0.44,0.36 -0.12,0.08 -0.48,0.36 -0.36,0.28 -0.6,0.44 -0.24,0.12 -0.72,0.4 -0.44,0.24 -0.84,0.36 -0.36,0.16 -0.92,0.32 -0.56,0.2 -1.12,0.28 -0.52,0.12 -1.2,0.16 -0.64,0.08 -1.36,0.08 -2.68,0 -4.24,-1.36 -1.52,-1.36 -1.52,-3.76 0,-2.76 2.16,-4.92 2.2,-2.2 7.36,-2.68 0.48,-0.04 1.6,-0.12 1.12,-0.08 1.56,-0.12 0.48,-0.08 1.24,-0.24 0.8,-0.16 1.16,-0.4 0.4,-0.24 0.76,-0.68 0.36,-0.44 0.48,-1.08 l 0.12,-0.72 q 0.08,-0.64 0.08,-0.88 0,-1.08 -1.2,-1.76 -1.2,-0.68 -3.04,-0.68 z m 3.16,8.16 q -1.16,0.4 -3.56,0.8 -2.4,0.36 -4.04,0.68 -1.64,0.28 -3,1.36 -1.32,1.08 -1.32,2.88 0,1.28 0.92,1.96 0.92,0.68 2.64,0.68 2.64,0 4.88,-1.36 2.28,-1.4 2.68,-3.24 l 0.8,-3.76 z"
         style="font-style:italic;font-variant:normal;font-weight:normal;font-stretch:normal;font-family:FreeSans;-inkscape-font-specification:FreeSans"
         id="path3391"
         inkscape:connector-curvature="0" />
      <path
         d="m 217.1732,645.94482 -0.56,2.68 -3.56,0 -3.12,14.68 q -0.08,0.48 -0.08,0.56 0,0.48 0.4,0.8 0.4,0.28 1.04,0.28 0.52,0 1.92,-0.32 l -0.64,2.92 q -1,0.28 -2.6,0.28 -1.64,0 -2.6,-0.84 -0.96,-0.84 -0.96,-2.32 0,-0.64 0.12,-1.24 l 3.16,-14.8 -2.84,0 0.56,-2.68 2.84,0 1.24,-5.76 3.36,0 -1.24,5.76 3.56,0 z"
         style="font-style:italic;font-variant:normal;font-weight:normal;font-stretch:normal;font-family:FreeSans;-inkscape-font-specification:FreeSans"
         id="path3393"
         inkscape:connector-curvature="0" />
      <path
         d="m 228.47633,645.34482 q 3.08,0 5,1.72 1.92,1.72 1.92,4.16 0,0.28 -0.12,1.76 l -3.36,0 q 0.04,-0.36 0.04,-0.88 0,-1.72 -1.12,-2.68 -1.08,-1 -2.96,-1 -1.92,0 -3.44,0.96 -1.52,0.96 -2.36,2.32 -0.84,1.36 -1.4,3.04 -0.52,1.64 -0.72,2.88 -0.16,1.2 -0.16,2.04 0,2.32 1.2,3.72 1.24,1.36 3.32,1.36 4.44,0 6.28,-5.04 l 3.36,0 q -0.2,0.72 -0.36,1.12 -0.12,0.4 -0.56,1.36 -0.4,0.96 -0.88,1.6 -0.44,0.64 -1.28,1.48 -0.8,0.84 -1.76,1.36 -0.92,0.48 -2.32,0.84 -1.4,0.36 -3.04,0.36 -2.12,0 -3.68,-0.8 -1.56,-0.76 -2.36,-2 -0.76,-1.28 -1.12,-2.48 -0.32,-1.24 -0.32,-2.44 0,-6.36 3.36,-10.56 3.4,-4.2 8.84,-4.2 z"
         style="font-style:italic;font-variant:normal;font-weight:normal;font-stretch:normal;font-family:FreeSans;-inkscape-font-specification:FreeSans"
         id="path3395"
         inkscape:connector-curvature="0" />
      <path
         d="m 242.23633,637.74482 3.36,0 -2.28,10.8 q 1.88,-1.76 3.56,-2.48 1.68,-0.72 3.92,-0.72 2.52,0 3.96,1.36 1.44,1.32 1.44,3.68 0,0.8 -0.16,1.48 l -3.2,15.04 -3.36,0 2.92,-13.72 q 0.24,-1.08 0.24,-1.56 0,-1.52 -0.96,-2.44 -0.92,-0.96 -2.44,-0.96 -2.72,0 -4.72,1.92 -2,1.92 -2.68,5.2 l -2.44,11.56 -3.36,0 6.2,-29.16 z"
         style="font-style:italic;font-variant:normal;font-weight:normal;font-stretch:normal;font-family:FreeSans;-inkscape-font-specification:FreeSans"
         id="path3397"
         inkscape:connector-curvature="0" />
      <path
         d="m -0.33742187,695.30482 5.59999997,0 0,4.24 q 0.88,-2.2 2.48,-3.4 1.6,-1.2 3.5199999,-1.2 0.36,0 0.68,0.04 l 0,5.68 q -1,-0.16 -1.76,-0.16 -4.9199999,0 -4.9199999,4.92 l 0,11.48 -5.59999997,0 0,-21.6 z"
         style="font-style:normal;font-variant:normal;font-weight:bold;font-stretch:normal;font-family:FreeSans;-inkscape-font-specification:FreeSans"
         id="path3399"
         inkscape:connector-curvature="0" />
      <path
         d="m 19.588203,717.82482 q -2.96,0 -4.76,-1.76 -1.8,-1.8 -1.8,-4.72 0,-5.72 6.36,-6.8 l 2.24,-0.4 q 0.08,0 0.8,-0.08 0.72,-0.12 0.92,-0.16 0.2,-0.08 0.76,-0.2 0.6,-0.12 0.84,-0.28 0.24,-0.16 0.56,-0.4 0.36,-0.28 0.48,-0.6 0.12,-0.36 0.12,-0.8 0,-2.16 -3.24,-2.16 -2.08,0 -2.92,0.64 -0.84,0.64 -1.04,2.32 l -5.4,0 q 0.52,-7.48 9.24,-7.48 8.84,0 8.84,6.64 l 0,12 q 0,1.48 1.28,2.64 l 0,0.68 -6.08,0 q -0.64,-0.8 -0.64,-2.16 -2.96,3.08 -6.56,3.08 z m 6.52,-9.6 0,-1.52 q -0.76,0.36 -2.36,0.68 l -1.92,0.36 q -1.76,0.36 -2.48,1.04 -0.72,0.68 -0.72,1.92 0,1.2 0.8,1.92 0.84,0.68 2.24,0.68 2.12,0 3.28,-1.32 1.16,-1.32 1.16,-3.76 z"
         style="font-style:normal;font-variant:normal;font-weight:bold;font-stretch:normal;font-family:FreeSans;-inkscape-font-specification:FreeSans"
         id="path3401"
         inkscape:connector-curvature="0" />
      <path
         d="m 41.828828,695.30482 0,21.6 -5.6,0 0,-21.6 5.6,0 z m 0,-7.56 0,5 -5.6,0 0,-5 5.6,0 z"
         style="font-style:normal;font-variant:normal;font-weight:bold;font-stretch:normal;font-family:FreeSans;-inkscape-font-specification:FreeSans"
         id="path3403"
         inkscape:connector-curvature="0" />
      <path
         d="m 47.162578,695.30482 5.6,0 0,3.12 q 2.32,-3.48 6.48,-3.48 3.44,0 5.32,1.96 1.92,1.96 1.92,5.52 l 0,14.48 -5.6,0 0,-13.32 q 0,-3.88 -3.6,-3.88 -2.04,0 -3.28,1.16 -1.24,1.16 -1.24,3.08 l 0,12.96 -5.6,0 0,-21.6 z"
         style="font-style:normal;font-variant:normal;font-weight:bold;font-stretch:normal;font-family:FreeSans;-inkscape-font-specification:FreeSans"
         id="path3405"
         inkscape:connector-curvature="0" />
      <path
         d="m 83.015703,694.94482 q 3.88,0 6.48,3.24 2.6,3.2 2.6,8.2 0,4.88 -2.6,8.16 -2.6,3.28 -6.48,3.28 -3.96,0 -5.96,-3.12 l 0,2.2 -5.6,0 0,-29.16 5.6,0 0,10.36 q 2,-3.16 5.96,-3.16 z m 2.16,6.6 q -1.32,-1.92 -3.4,-1.92 -2.08,0 -3.4,1.88 -1.32,1.84 -1.32,4.8 0,3.08 1.28,4.96 1.32,1.88 3.44,1.88 2.08,0 3.4,-1.88 1.32,-1.88 1.32,-4.84 0,-3 -1.32,-4.88 z"
         style="font-style:normal;font-variant:normal;font-weight:bold;font-stretch:normal;font-family:FreeSans;-inkscape-font-specification:FreeSans"
         id="path3407"
         inkscape:connector-curvature="0" />
      <path
         d="m 105.35445,694.94482 q 5.08,0 7.88,3.08 2.84,3.04 2.84,8.52 0,5.2 -2.88,8.24 -2.88,3.04 -7.8,3.04 -5,0 -7.839997,-3.04 -2.84,-3.08 -2.84,-8.4 0,-5.32 2.84,-8.36 2.839997,-3.08 7.799997,-3.08 z m 0.04,4.52 q -2.28,0 -3.68,1.92 -1.4,1.92 -1.4,5 0,3.08 1.4,5 1.4,1.92 3.68,1.92 2.24,0 3.64,-1.88 1.44,-1.92 1.44,-4.96 0,-3.2 -1.4,-5.08 -1.36,-1.92 -3.68,-1.92 z"
         style="font-style:normal;font-variant:normal;font-weight:bold;font-stretch:normal;font-family:FreeSans;-inkscape-font-specification:FreeSans"
         id="path3409"
         inkscape:connector-curvature="0" />
      <path
         d="m 141.66258,716.90482 -5.8,0 -3.24,-15.24 -3.44,15.24 -5.76,0 -6.08,-21.6 5.8,0 3.44,15.12 3.28,-15.12 5.6,0 3.24,15.12 3.28,-15.12 5.8,0 -6.12,21.6 z"
         style="font-style:normal;font-variant:normal;font-weight:bold;font-stretch:normal;font-family:FreeSans;-inkscape-font-specification:FreeSans"
         id="path3411"
         inkscape:connector-curvature="0" />
      <path
         d="m 161.73008,695.30482 5.56,0 0,2.68 q 1.4,-1.64 2.72,-2.32 1.36,-0.72 3.2,-0.72 4.24,0 5.88,3.2 2.4,-3.2 6.32,-3.2 3.24,0 5.04,1.76 1.84,1.76 1.84,4.92 l 0,15.28 -5.6,0 0,-14.4 q 0,-1.28 -0.84,-2.04 -0.8,-0.76 -2.2,-0.76 -1.8,0 -2.84,1.12 -1,1.12 -1,3.12 l 0,12.96 -5.6,0 0,-14.4 q 0,-1.28 -0.84,-2.04 -0.8,-0.76 -2.2,-0.76 -1.8,0 -2.84,1.12 -1,1.12 -1,3.12 l 0,12.96 -5.6,0 0,-21.6 z"
         style="font-style:normal;font-variant:normal;font-weight:bold;font-stretch:normal;font-family:FreeSans;-inkscape-font-specification:FreeSans"
         id="path3413"
         inkscape:connector-curvature="0" />
      <path
         d="m 202.16633,717.82482 q -2.96,0 -4.76,-1.76 -1.8,-1.8 -1.8,-4.72 0,-5.72 6.36,-6.8 l 2.24,-0.4 q 0.08,0 0.8,-0.08 0.72,-0.12 0.92,-0.16 0.2,-0.08 0.76,-0.2 0.6,-0.12 0.84,-0.28 0.24,-0.16 0.56,-0.4 0.36,-0.28 0.48,-0.6 0.12,-0.36 0.12,-0.8 0,-2.16 -3.24,-2.16 -2.08,0 -2.92,0.64 -0.84,0.64 -1.04,2.32 l -5.4,0 q 0.52,-7.48 9.24,-7.48 8.84,0 8.84,6.64 l 0,12 q 0,1.48 1.28,2.64 l 0,0.68 -6.08,0 q -0.64,-0.8 -0.64,-2.16 -2.96,3.08 -6.56,3.08 z m 6.52,-9.6 0,-1.52 q -0.76,0.36 -2.36,0.68 l -1.92,0.36 q -1.76,0.36 -2.48,1.04 -0.72,0.68 -0.72,1.92 0,1.2 0.8,1.92 0.84,0.68 2.24,0.68 2.12,0 3.28,-1.32 1.16,-1.32 1.16,-3.76 z"
         style="font-style:normal;font-variant:normal;font-weight:bold;font-stretch:normal;font-family:FreeSans;-inkscape-font-specification:FreeSans"
         id="path3415"
         inkscape:connector-curvature="0" />
      <path
         d="m 228.0107,695.74482 0,3.72 -3.12,0 0,11.76 q 0,1.44 0.36,1.92 0.36,0.44 1.48,0.44 0.44,0 1.28,-0.12 l 0,3.92 q -1.36,0.44 -3.24,0.44 -5.48,0 -5.48,-5.08 l 0,-13.28 -2.76,0 0,-3.72 2.76,0 0,-5.8 5.6,0 0,5.8 3.12,0 z"
         style="font-style:normal;font-variant:normal;font-weight:bold;font-stretch:normal;font-family:FreeSans;-inkscape-font-specification:FreeSans"
         id="path3417"
         inkscape:connector-curvature="0" />
      <path
         d="m 239.83445,699.46482 q -4.56,0 -4.56,7.08 0,3.16 1.2,4.96 1.24,1.8 3.36,1.8 1.64,0 2.56,-0.88 0.92,-0.92 1.44,-3 l 5.36,0 q -0.4,3.88 -2.96,6.16 -2.52,2.24 -6.44,2.24 -4.8,0 -7.48,-2.96 -2.64,-2.96 -2.64,-8.32 0,-5.52 2.68,-8.56 2.68,-3.04 7.52,-3.04 4.04,0 6.52,2.24 2.52,2.24 2.8,6.2 l -5.36,0 q -0.48,-2.12 -1.4,-3 -0.88,-0.92 -2.6,-0.92 z"
         style="font-style:normal;font-variant:normal;font-weight:bold;font-stretch:normal;font-family:FreeSans;-inkscape-font-specification:FreeSans"
         id="path3419"
         inkscape:connector-curvature="0" />
      <path
         d="m 265.99508,703.70482 q 0,-4 -3.44,-4 -1.88,0 -3.12,1.2 -1.2,1.2 -1.2,3.04 l 0,12.96 -5.6,0 0,-29.16 5.6,0 0,10.68 q 2.32,-3.48 6.32,-3.48 1.28,0 2.4,0.36 1.16,0.32 2.24,1.12 1.12,0.76 1.76,2.32 0.64,1.56 0.64,3.68 l 0,14.48 -5.6,0 0,-13.2 z"
         style="font-style:normal;font-variant:normal;font-weight:bold;font-stretch:normal;font-family:FreeSans;-inkscape-font-specification:FreeSans"
         id="path3421"
         inkscape:connector-curvature="0" />
      <path
         d="m 4.2625781,745.30482 5.6,0 -0.92,4.24 q 1.3999999,-2.2 3.2399999,-3.4 1.84,-1.2 3.76,-1.2 0.36,0 0.68,0.04 l -1.2,5.68 q -0.96,-0.16 -1.72,-0.16 -4.9599999,0 -5.9999999,4.92 l -2.44,11.48 -5.59999997,0 4.59999997,-21.6 z"
         style="font-style:italic;font-variant:normal;font-weight:bold;font-stretch:normal;font-family:FreeSans;-inkscape-font-specification:FreeSans"
         id="path3423"
         inkscape:connector-curvature="0" />
      <path
         d="m 27.348203,744.94482 q 2.28,0 3.88,0.48 1.64,0.44 2.4,1.24 0.76,0.76 1.08,1.52 0.32,0.76 0.32,1.6 0,0.72 -0.24,1.8 l -2.52,12 q -0.12,0.56 -0.12,0.84 0,0.84 0.84,1.8 l -0.16,0.68 -6.12,0 q -0.28,-0.6 -0.28,-1.08 0,-0.48 0.12,-1.08 -3.44,3.08 -6.68,3.08 -2.68,0 -4.32,-1.44 -1.64,-1.44 -1.64,-3.8 0,-0.6 0.16,-1.36 0.16,-0.8 0.68,-1.88 0.56,-1.08 1.4,-2 0.84,-0.92 2.36,-1.72 1.52,-0.84 3.48,-1.16 l 2.32,-0.36 q 0.16,-0.04 0.68,-0.08 0.52,-0.08 0.76,-0.12 0.24,-0.04 0.72,-0.12 0.52,-0.12 0.76,-0.2 0.24,-0.12 0.64,-0.24 0.4,-0.16 0.6,-0.36 0.24,-0.2 0.44,-0.48 0.24,-0.28 0.32,-0.6 0.12,-0.36 0.12,-0.76 0,-1.72 -2.92,-1.72 -1.92,0 -2.96,0.68 -1,0.68 -1.52,2.32 l -5.24,0 q 0.84,-3.92 3.36,-5.68 2.56,-1.8 7.28,-1.8 z m 0.56,13.28 0.32,-1.52 q -0.48,0.28 -1.88,0.56 l -2.64,0.44 q -1.96,0.32 -3.04,1.28 -1.04,0.96 -1.04,2.36 0,2 2.92,2 2.04,0 3.4,-1.32 1.4,-1.32 1.96,-3.8 z"
         style="font-style:italic;font-variant:normal;font-weight:bold;font-stretch:normal;font-family:FreeSans;-inkscape-font-specification:FreeSans"
         id="path3425"
         inkscape:connector-curvature="0" />
      <path
         d="m 47.053828,745.30482 -4.6,21.6 -5.6,0 4.6,-21.6 5.6,0 z m 1.6,-7.56 -1.08,5 -5.6,0 1.08,-5 5.6,0 z"
         style="font-style:italic;font-variant:normal;font-weight:bold;font-stretch:normal;font-family:FreeSans;-inkscape-font-specification:FreeSans"
         id="path3427"
         inkscape:connector-curvature="0" />
      <path
         d="m 52.387578,745.30482 5.6,0 -0.72,3.28 q 1.6,-1.92 3.32,-2.76 1.72,-0.88 3.96,-0.88 2.68,0 4.28,1.44 1.6,1.44 1.6,3.84 0,1.08 -0.24,2.2 l -3.08,14.48 -5.6,0 2.68,-12.52 q 0.24,-1.32 0.24,-1.96 0,-3 -2.96,-3 -2,0 -3.48,1.44 -1.44,1.4 -2,3.88 l -2.6,12.16 -5.6,0 4.6,-21.6 z"
         style="font-style:italic;font-variant:normal;font-weight:bold;font-stretch:normal;font-family:FreeSans;-inkscape-font-specification:FreeSans"
         id="path3429"
         inkscape:connector-curvature="0" />
      <path
         d="m 78.280703,737.74482 5.6,0 -2.2,10.36 q 2.64,-3.16 6.64,-3.16 3.16,0 5.08,2.28 1.92,2.24 1.92,6 0,5.68 -3.64,10.16 -3.6,4.44 -8.24,4.44 -4,0 -5.28,-3.12 l -0.48,2.2 -5.6,0 6.2,-29.16 z m 7.8,11.68 q -2.56,0 -4.52,2.84 -1.92,2.8 -1.92,6.56 0,2.04 0.96,3.28 0.96,1.24 2.56,1.24 2.56,0 4.48,-2.76 1.96,-2.8 1.96,-6.44 0,-2.2 -0.96,-3.44 -0.92,-1.28 -2.56,-1.28 z"
         style="font-style:italic;font-variant:normal;font-weight:bold;font-stretch:normal;font-family:FreeSans;-inkscape-font-specification:FreeSans"
         id="path3431"
         inkscape:connector-curvature="0" />
      <path
         d="m 97.453828,759.82482 q 0,-6.2 3.640002,-10.52 3.68,-4.36 9.6,-4.36 4.12,0 6.48,2.16 2.36,2.12 2.36,5.84 0,6.32 -3.72,10.6 -3.72,4.28 -9.68,4.28 -3.96,0 -6.320002,-2.16 -2.36,-2.2 -2.36,-5.84 z m 9.680002,3.52 q 1.88,0 3.28,-1.08 1.4,-1.12 2.08,-2.72 0.68,-1.64 1,-3.04 0.32,-1.4 0.32,-2.4 0,-2.12 -1.08,-3.4 -1.08,-1.28 -2.92,-1.28 -2.72,0 -4.68,2.76 -1.96,2.72 -1.96,6.52 0,2.12 1.08,3.4 1.08,1.24 2.88,1.24 z"
         style="font-style:italic;font-variant:normal;font-weight:bold;font-stretch:normal;font-family:FreeSans;-inkscape-font-specification:FreeSans"
         id="path3433"
         inkscape:connector-curvature="0" />
      <path
         d="m 142.91633,766.90482 -5.8,0 -0.2,-15.2 -6.64,15.2 -5.76,0 -1.48,-21.6 5.8,0 0.2,15.12 6.36,-15.12 5.76,0 0,15.12 6.52,-15.12 5.8,0 -10.56,21.6 z"
         style="font-style:italic;font-variant:normal;font-weight:bold;font-stretch:normal;font-family:FreeSans;-inkscape-font-specification:FreeSans"
         id="path3435"
         inkscape:connector-curvature="0" />
      <path
         d="m 167.42383,745.30482 5.56,0 -0.68,3.24 q 1.76,-1.96 3.32,-2.76 1.56,-0.84 3.52,-0.84 1.84,0 3.16,0.88 1.36,0.88 1.8,2.4 3.16,-3.28 7.08,-3.28 2.68,0 4.16,1.36 1.52,1.32 1.52,3.68 0,0.88 -0.32,2.44 l -3.08,14.48 -5.6,0 2.88,-13.6 q 0.2,-0.92 0.2,-1.64 0,-2.24 -2.32,-2.24 -1.88,0 -3.2,1.2 -1.28,1.16 -1.72,3.32 l -2.76,12.96 -5.6,0 2.96,-13.84 q 0.12,-0.64 0.12,-1.32 0,-1.04 -0.68,-1.68 -0.68,-0.64 -1.84,-0.64 -1.76,0 -3.04,1.24 -1.24,1.2 -1.68,3.28 l -2.76,12.96 -5.6,0 4.6,-21.6 z"
         style="font-style:italic;font-variant:normal;font-weight:bold;font-stretch:normal;font-family:FreeSans;-inkscape-font-specification:FreeSans"
         id="path3437"
         inkscape:connector-curvature="0" />
      <path
         d="m 211.4107,744.94482 q 2.28,0 3.88,0.48 1.64,0.44 2.4,1.24 0.76,0.76 1.08,1.52 0.32,0.76 0.32,1.6 0,0.72 -0.24,1.8 l -2.52,12 q -0.12,0.56 -0.12,0.84 0,0.84 0.84,1.8 l -0.16,0.68 -6.12,0 q -0.28,-0.6 -0.28,-1.08 0,-0.48 0.12,-1.08 -3.44,3.08 -6.68,3.08 -2.68,0 -4.32,-1.44 -1.64,-1.44 -1.64,-3.8 0,-0.6 0.16,-1.36 0.16,-0.8 0.68,-1.88 0.56,-1.08 1.4,-2 0.84,-0.92 2.36,-1.72 1.52,-0.84 3.48,-1.16 l 2.32,-0.36 q 0.16,-0.04 0.68,-0.08 0.52,-0.08 0.76,-0.12 0.24,-0.04 0.72,-0.12 0.52,-0.12 0.76,-0.2 0.24,-0.12 0.64,-0.24 0.4,-0.16 0.6,-0.36 0.24,-0.2 0.44,-0.48 0.24,-0.28 0.32,-0.6 0.12,-0.36 0.12,-0.76 0,-1.72 -2.92,-1.72 -1.92,0 -2.96,0.68 -1,0.68 -1.52,2.32 l -5.24,0 q 0.84,-3.92 3.36,-5.68 2.56,-1.8 7.28,-1.8 z m 0.56,13.28 0.32,-1.52 q -0.48,0.28 -1.88,0.56 l -2.64,0.44 q -1.96,0.32 -3.04,1.28 -1.04,0.96 -1.04,2.36 0,2 2.92,2 2.04,0 3.4,-1.32 1.4,-1.32 1.96,-3.8 z"
         style="font-style:italic;font-variant:normal;font-weight:bold;font-stretch:normal;font-family:FreeSans;-inkscape-font-specification:FreeSans"
         id="path3439"
         inkscape:connector-curvature="0" />
      <path
         d="m 234.4057,745.74482 -0.8,3.72 -3.12,0 -2.48,11.76 q -0.24,1.04 -0.24,1.36 0,1 1.52,1 0.48,0 1.32,-0.12 l -0.8,3.92 q -1.56,0.44 -3.4,0.44 -2.2,0 -3.36,-0.92 -1.16,-0.88 -1.16,-2.52 0,-0.72 0.2,-1.64 l 2.8,-13.28 -2.76,0 0.8,-3.72 2.76,0 1.24,-5.8 5.6,0 -1.24,5.8 3.12,0 z"
         style="font-style:italic;font-variant:normal;font-weight:bold;font-stretch:normal;font-family:FreeSans;-inkscape-font-specification:FreeSans"
         id="path3441"
         inkscape:connector-curvature="0" />
      <path
         d="m 246.73445,744.94482 q 3.64,0 5.8,1.92 2.16,1.92 2.16,4.8 0,0.44 -0.16,1.72 l -5.36,0 q -0.04,-2 -0.64,-2.96 -0.6,-1 -2.64,-1 -1.76,0 -3.08,1.08 -1.32,1.08 -1.96,2.76 -0.64,1.64 -0.96,3.16 -0.28,1.52 -0.28,2.8 0,4.12 3.56,4.12 1.64,0 2.72,-0.88 1.08,-0.92 2,-3.04 l 5.36,0 q -1.24,4 -4.08,6.2 -2.8,2.2 -6.68,2.2 -2.44,0 -4.24,-0.76 -1.76,-0.76 -2.68,-2 -0.88,-1.24 -1.28,-2.48 -0.4,-1.24 -0.4,-2.56 0,-1.32 0.28,-2.96 0.28,-1.68 1.16,-3.88 0.88,-2.2 2.2,-3.96 1.36,-1.8 3.76,-3.04 2.4,-1.24 5.44,-1.24 z"
         style="font-style:italic;font-variant:normal;font-weight:bold;font-stretch:normal;font-family:FreeSans;-inkscape-font-specification:FreeSans"
         id="path3443"
         inkscape:connector-curvature="0" />
      <path
         d="m 261.96008,737.74482 5.6,0 -2.32,10.84 q 3.08,-3.64 7.2,-3.64 2.6,0 4.2,1.48 1.6,1.44 1.6,3.8 0,1.08 -0.24,2.2 l -3.08,14.48 -5.6,0 2.68,-12.52 q 0.24,-1.24 0.24,-1.92 0,-3.04 -2.92,-3.04 -1.92,0 -3.4,1.44 -1.44,1.44 -1.96,3.88 l -2.6,12.16 -5.6,0 6.2,-29.16 z"
         style="font-style:italic;font-variant:normal;font-weight:bold;font-stretch:normal;font-family:FreeSans;-inkscape-font-specification:FreeSans"
         id="path3445"
         inkscape:connector-curvature="0" />
    </g>
  </g>
</svg>
